# xmcd
#
# Track frame offsets:
#	150
#	4283
#	20611
#	37021
#	54098
#	71828
#	87575
#	105291
#	122304
#	146453
#	160275
#	179881
#
# Disc length: 2683 seconds
#
# Revision: 0
# Processed by: cddbd v1.5.2PL0 Copyright (c) Steve Scherf et al.
# Submitted via: FairStars CD Ripper 1.80
#
DISCID=9f0a790c
DTITLE=CG Ryche - X
DYEAR=2006
DGENRE=Drum Solo
TTITLE0=The Exodus
TTITLE1=Pray
TTITLE2=Bubulubu
TTITLE3=Cocoons
TTITLE4=Brasil
TTITLE5=Urban Faith
TTITLE6=Myst
TTITLE7=Puerto Rico
TTITLE8=X
TTITLE9=Ocean Dreams
TTITLE10=Stay With Me Now
TTITLE11=The Two Trees of Eden
EXTD=
EXTT0=
EXTT1=
EXTT2=
EXTT3=
EXTT4=
EXTT5=
EXTT6=
EXTT7=
EXTT8=
EXTT9=
EXTT10=
EXTT11=
PLAYORDER=
